<mxfile host="65bd71144e" modified="2020-11-17T22:29:24.206Z" agent="5.0 (Windows NT 10.0; Win64; x64) AppleWebKit/537.36 (KHTML, like Gecko) Code/1.51.1 Chrome/83.0.4103.122 Electron/9.3.3 Safari/537.36" etag="ONA9CKIY0f59pGB-HIOG" version="13.6.5">
    <diagram id="HGubhw8s-Pdd0cFW7XTH" name="Pagina-1">
        <mxGraphModel dx="621" dy="627" grid="1" gridSize="10" guides="1" tooltips="1" connect="1" arrows="1" fold="1" page="1" pageScale="1" pageWidth="827" pageHeight="1169" math="0" shadow="0">
            <root>
                <mxCell id="0"/>
                <mxCell id="1" parent="0"/>
                <mxCell id="SO3r1Ub8cv-PkxdZEss8-22" value="ProjectNode" style="html=1;" parent="1" vertex="1">
                    <mxGeometry x="359" y="680" width="110" height="50" as="geometry"/>
                </mxCell>
                <mxCell id="SO3r1Ub8cv-PkxdZEss8-5" value="AbstractNode" style="swimlane;fontStyle=1;align=center;verticalAlign=top;childLayout=stackLayout;horizontal=1;startSize=26;horizontalStack=0;resizeParent=1;resizeParentMax=0;resizeLast=0;collapsible=1;marginBottom=0;" parent="1" vertex="1">
                    <mxGeometry x="20" y="20" width="230" height="590" as="geometry"/>
                </mxCell>
                <mxCell id="SO3r1Ub8cv-PkxdZEss8-6" value="+ up: AbstractNode&#10;+ children: list[AbstractNode]&#10;+ bundle: AbstractFeatureBundle" style="text;strokeColor=none;fillColor=none;align=left;verticalAlign=top;spacingLeft=4;spacingRight=4;overflow=hidden;rotatable=0;points=[[0,0.5],[1,0.5]];portConstraint=eastwest;" parent="SO3r1Ub8cv-PkxdZEss8-5" vertex="1">
                    <mxGeometry y="26" width="230" height="54" as="geometry"/>
                </mxCell>
                <mxCell id="SO3r1Ub8cv-PkxdZEss8-7" value="" style="line;strokeWidth=1;fillColor=none;align=left;verticalAlign=middle;spacingTop=-1;spacingLeft=3;spacingRight=3;rotatable=0;labelPosition=right;points=[];portConstraint=eastwest;" parent="SO3r1Ub8cv-PkxdZEss8-5" vertex="1">
                    <mxGeometry y="80" width="230" height="8" as="geometry"/>
                </mxCell>
                <mxCell id="SO3r1Ub8cv-PkxdZEss8-8" value="+ addChild(AbstractNode): bool&#10;+ insertChild(AbstractNode, int): bool&#10;+ addChildren(list[AbstractNode])&#10;+ updateParent(AbstractNode)&#10;&#10;+ removeChild(AbstractNode): bool&#10;+ popChild(int): AbstractNode&#10;+ removeChildren(list[AbstractNode])&#10;+ detach(): AbstractNode&#10;&#10;+ superficialCopy(): AbstractNode&#10;+ deepCopy(): AbstractNode&#10;&#10;+ addFeature(str, PyObject)&#10;+ addFeatures(dict[str, PyObject])&#10;+ updateFeature(str, PyObject)&#10;+ deleteFeature(str)&#10;+ deleteFeatures(str)&#10;+ getFeature(str): PyObject&#10;+ replaceBundle(AbstractFeatureBundle)&#10;+ getBundle(): AbstractFeatureBundle&#10;&#10;+ iterPreorder(): AbstractNode&#10;+ iterPostorder(): AbstractNode&#10;+ iterAncestors(): AbstractNode&#10;&#10;+ getRoot(): AbstractNode&#10;+ getParent(): AbstractNode&#10;+ getChildAt(): AbstractNode&#10;+ getChildren(): list[AbstractNode]&#10;+ getDescendants(): list[AbstractNode]&#10;+ getAncestors(): list[AbstractNode]&#10;+ getHeight(): int&#10;+ getDepth(): int&#10;+ getIndex(): int&#10;&#10;+ toString(): str&#10;&#10;+ __len__(): int&#10;+ __repr__(): str&#10;+ __str__(): str" style="text;strokeColor=none;fillColor=none;align=left;verticalAlign=top;spacingLeft=4;spacingRight=4;overflow=hidden;rotatable=0;points=[[0,0.5],[1,0.5]];portConstraint=eastwest;" parent="SO3r1Ub8cv-PkxdZEss8-5" vertex="1">
                    <mxGeometry y="88" width="230" height="502" as="geometry"/>
                </mxCell>
                <mxCell id="SO3r1Ub8cv-PkxdZEss8-1" value="AbstractFeatureBundle" style="swimlane;fontStyle=1;align=center;verticalAlign=top;childLayout=stackLayout;horizontal=1;startSize=26;horizontalStack=0;resizeParent=1;resizeParentMax=0;resizeLast=0;collapsible=1;marginBottom=0;" parent="1" vertex="1">
                    <mxGeometry x="287.5" y="20" width="280" height="340" as="geometry"/>
                </mxCell>
                <mxCell id="SO3r1Ub8cv-PkxdZEss8-2" value="+ featureList: list[str]" style="text;strokeColor=none;fillColor=none;align=left;verticalAlign=top;spacingLeft=4;spacingRight=4;overflow=hidden;rotatable=0;points=[[0,0.5],[1,0.5]];portConstraint=eastwest;" parent="SO3r1Ub8cv-PkxdZEss8-1" vertex="1">
                    <mxGeometry y="26" width="280" height="26" as="geometry"/>
                </mxCell>
                <mxCell id="SO3r1Ub8cv-PkxdZEss8-3" value="" style="line;strokeWidth=1;fillColor=none;align=left;verticalAlign=middle;spacingTop=-1;spacingLeft=3;spacingRight=3;rotatable=0;labelPosition=right;points=[];portConstraint=eastwest;" parent="SO3r1Ub8cv-PkxdZEss8-1" vertex="1">
                    <mxGeometry y="52" width="280" height="8" as="geometry"/>
                </mxCell>
                <mxCell id="SO3r1Ub8cv-PkxdZEss8-4" value="+ addFeature(str, PyObject)&#10;+ addFeatures(dict[str, PyObject])&#10;+ addEmptyFeature(str)&#10;+ addEmptyFeatures(list[str])&#10;+ updateFeature(str, PyObject)&#10;+ deleteFeature(str)&#10;+ deleteFeatures(list[str])&#10;+ getFeature(str): PyObject&#10;&#10;+ copy(): AbstractFeatureBundle&#10;&#10;+ toString(): str&#10;+ getBundleDictionary(): dict[str, PyObject]&#10;+ getSelectedFeatures(list[str]): dict[str, PyObject]&#10;+ getBundleKeys(): list[str]&#10;+ getBundleValues(): list[PyObjects]&#10;&#10;+ __repr__(): str&#10;+ __str__(): str&#10;" style="text;strokeColor=none;fillColor=none;align=left;verticalAlign=top;spacingLeft=4;spacingRight=4;overflow=hidden;rotatable=0;points=[[0,0.5],[1,0.5]];portConstraint=eastwest;" parent="SO3r1Ub8cv-PkxdZEss8-1" vertex="1">
                    <mxGeometry y="60" width="280" height="280" as="geometry"/>
                </mxCell>
                <mxCell id="SO3r1Ub8cv-PkxdZEss8-23" value="MeasuredNode" style="html=1;" parent="1" vertex="1">
                    <mxGeometry x="359" y="920" width="110" height="50" as="geometry"/>
                </mxCell>
                <mxCell id="SO3r1Ub8cv-PkxdZEss8-24" value="AssemblyNode" style="html=1;" parent="1" vertex="1">
                    <mxGeometry x="359" y="740" width="110" height="50" as="geometry"/>
                </mxCell>
                <mxCell id="SO3r1Ub8cv-PkxdZEss8-25" value="LeafNode" style="html=1;" parent="1" vertex="1">
                    <mxGeometry x="359" y="800" width="110" height="50" as="geometry"/>
                </mxCell>
                <mxCell id="SO3r1Ub8cv-PkxdZEss8-26" value="HardwareNode" style="html=1;" parent="1" vertex="1">
                    <mxGeometry x="359" y="860" width="110" height="50" as="geometry"/>
                </mxCell>
                <mxCell id="SO3r1Ub8cv-PkxdZEss8-9" value="ComponentNode" style="swimlane;fontStyle=1;align=center;verticalAlign=top;childLayout=stackLayout;horizontal=1;startSize=26;horizontalStack=0;resizeParent=1;resizeParentMax=0;resizeLast=0;collapsible=1;marginBottom=0;" parent="1" vertex="1">
                    <mxGeometry x="20" y="630" width="330" height="500" as="geometry"/>
                </mxCell>
                <mxCell id="SO3r1Ub8cv-PkxdZEss8-10" value="+ selfHash: int&#10;+ parentHash: int&#10;+ level: int" style="text;strokeColor=none;fillColor=none;align=left;verticalAlign=top;spacingLeft=4;spacingRight=4;overflow=hidden;rotatable=0;points=[[0,0.5],[1,0.5]];portConstraint=eastwest;" parent="SO3r1Ub8cv-PkxdZEss8-9" vertex="1">
                    <mxGeometry y="26" width="330" height="54" as="geometry"/>
                </mxCell>
                <mxCell id="SO3r1Ub8cv-PkxdZEss8-11" value="" style="line;strokeWidth=1;fillColor=none;align=left;verticalAlign=middle;spacingTop=-1;spacingLeft=3;spacingRight=3;rotatable=0;labelPosition=right;points=[];portConstraint=eastwest;" parent="SO3r1Ub8cv-PkxdZEss8-9" vertex="1">
                    <mxGeometry y="80" width="330" height="8" as="geometry"/>
                </mxCell>
                <mxCell id="SO3r1Ub8cv-PkxdZEss8-12" value="+ addFeature(str, PyObject)&#10;+ addFeatures(dict[str, PyObject])&#10;+ updateFeature(str, PyObject)&#10;+ deleteFeature(str)&#10;+ deleteFeatures(list[str])&#10;+ getFeature(str): PyObject&#10;&#10;+ updateHashes(ComponentNode)&#10;&#10;+ searchNode(dict[str, PyObject]): ComponentNode&#10;+ getNodesList(dict[str, PyObject]): list[ComponentNode]&#10;+ getLeavesList(): list[ComponentNode]&#10;&#10;+ getPrefix(): str&#10;+ getSize(): int&#10;+ getLevel(): int&#10;+ getTotalCost(optional ComponentNode): float&#10;+ getTotalQuantity(optional ComponentNode): int&#10;+ getNewNumber(str, int): str&#10;&#10;+ getNodeString(): str&#10;+ getDescendantsList(): list[str]&#10;+ getNodeDictionary(): dict[str, PyObject]&#10;+ toString(optional tab, list[str]): str&#10;&#10;+ __str__(): str&#10;+ __repr__(): str&#10;+ __eq__(): bool&#10;" style="text;strokeColor=none;fillColor=none;align=left;verticalAlign=top;spacingLeft=4;spacingRight=4;overflow=hidden;rotatable=0;points=[[0,0.5],[1,0.5]];portConstraint=eastwest;" parent="SO3r1Ub8cv-PkxdZEss8-9" vertex="1">
                    <mxGeometry y="88" width="330" height="412" as="geometry"/>
                </mxCell>
                <mxCell id="20" value="AbstractTree" style="swimlane;fontStyle=1;align=center;verticalAlign=top;childLayout=stackLayout;horizontal=1;startSize=26;horizontalStack=0;resizeParent=1;resizeParentMax=0;resizeLast=0;collapsible=1;marginBottom=0;" parent="1" vertex="1">
                    <mxGeometry x="590" y="378" width="200" height="270" as="geometry"/>
                </mxCell>
                <mxCell id="21" value="+ root: AbstractNode" style="text;strokeColor=none;fillColor=none;align=left;verticalAlign=top;spacingLeft=4;spacingRight=4;overflow=hidden;rotatable=0;points=[[0,0.5],[1,0.5]];portConstraint=eastwest;" parent="20" vertex="1">
                    <mxGeometry y="26" width="200" height="26" as="geometry"/>
                </mxCell>
                <mxCell id="22" value="" style="line;strokeWidth=1;fillColor=none;align=left;verticalAlign=middle;spacingTop=-1;spacingLeft=3;spacingRight=3;rotatable=0;labelPosition=right;points=[];portConstraint=eastwest;" parent="20" vertex="1">
                    <mxGeometry y="52" width="200" height="8" as="geometry"/>
                </mxCell>
                <mxCell id="23" value="+ copy(): AbstractTree&#10;&#10;+ iterPreorder(): AbstractNode&#10;+ iterPostorder(): AbstractNode&#10;&#10;+ getRoot(): AbstractNode&#10;+ getHeight(): int&#10;+ getLeaves(): list[AbstractNode]&#10;+ getNodes(): list[AbstractNode]&#10;&#10;+ toString(): str&#10;&#10;+ __repr__(): str&#10;+ __str__(): str" style="text;strokeColor=none;fillColor=none;align=left;verticalAlign=top;spacingLeft=4;spacingRight=4;overflow=hidden;rotatable=0;points=[[0,0.5],[1,0.5]];portConstraint=eastwest;" parent="20" vertex="1">
                    <mxGeometry y="60" width="200" height="210" as="geometry"/>
                </mxCell>
                <mxCell id="SO3r1Ub8cv-PkxdZEss8-27" value="JigNode" style="html=1;" parent="1" vertex="1">
                    <mxGeometry x="359" y="1100" width="110" height="50" as="geometry"/>
                </mxCell>
                <mxCell id="SO3r1Ub8cv-PkxdZEss8-28" value="ProductNode" style="html=1;" parent="1" vertex="1">
                    <mxGeometry x="359" y="980" width="110" height="50" as="geometry"/>
                </mxCell>
                <mxCell id="SO3r1Ub8cv-PkxdZEss8-29" value="PlaceholderNode" style="html=1;" parent="1" vertex="1">
                    <mxGeometry x="359" y="1040" width="110" height="50" as="geometry"/>
                </mxCell>
                <mxCell id="16" value="ComponentFeaturesBundle" style="swimlane;fontStyle=1;align=center;verticalAlign=top;childLayout=stackLayout;horizontal=1;startSize=26;horizontalStack=0;resizeParent=1;resizeParentMax=0;resizeLast=0;collapsible=1;marginBottom=0;" parent="1" vertex="1">
                    <mxGeometry x="372.5" y="376" width="195" height="274" as="geometry"/>
                </mxCell>
                <mxCell id="17" value="+ numberID: str&#10;+ name: str&#10;+ description: str&#10;&#10;+ packageQuantity: int&#10;+ quantity: int&#10;+ price: float&#10;&#10;+ type: str&#10;+ manufacture: str&#10;+ status: str&#10;&#10;+ seller: str&#10;+ link: str (URL)" style="text;strokeColor=none;fillColor=none;align=left;verticalAlign=top;spacingLeft=4;spacingRight=4;overflow=hidden;rotatable=0;points=[[0,0.5],[1,0.5]];portConstraint=eastwest;" parent="16" vertex="1">
                    <mxGeometry y="26" width="195" height="214" as="geometry"/>
                </mxCell>
                <mxCell id="18" value="" style="line;strokeWidth=1;fillColor=none;align=left;verticalAlign=middle;spacingTop=-1;spacingLeft=3;spacingRight=3;rotatable=0;labelPosition=right;points=[];portConstraint=eastwest;" parent="16" vertex="1">
                    <mxGeometry y="240" width="195" height="2" as="geometry"/>
                </mxCell>
                <mxCell id="19" value="+ addFeature(str, PyObject)" style="text;strokeColor=none;fillColor=none;align=left;verticalAlign=top;spacingLeft=4;spacingRight=4;overflow=hidden;rotatable=0;points=[[0,0.5],[1,0.5]];portConstraint=eastwest;" parent="16" vertex="1">
                    <mxGeometry y="242" width="195" height="32" as="geometry"/>
                </mxCell>
                <mxCell id="24" value="ComponentTree" style="swimlane;fontStyle=1;align=center;verticalAlign=top;childLayout=stackLayout;horizontal=1;startSize=26;horizontalStack=0;resizeParent=1;resizeParentMax=0;resizeLast=0;collapsible=1;marginBottom=0;" vertex="1" parent="1">
                    <mxGeometry x="480" y="680" width="330" height="240" as="geometry"/>
                </mxCell>
                <mxCell id="25" value="+ root: ComponentNode" style="text;strokeColor=none;fillColor=none;align=left;verticalAlign=top;spacingLeft=4;spacingRight=4;overflow=hidden;rotatable=0;points=[[0,0.5],[1,0.5]];portConstraint=eastwest;" vertex="1" parent="24">
                    <mxGeometry y="26" width="330" height="26" as="geometry"/>
                </mxCell>
                <mxCell id="26" value="" style="line;strokeWidth=1;fillColor=none;align=left;verticalAlign=middle;spacingTop=-1;spacingLeft=3;spacingRight=3;rotatable=0;labelPosition=right;points=[];portConstraint=eastwest;" vertex="1" parent="24">
                    <mxGeometry y="52" width="330" height="8" as="geometry"/>
                </mxCell>
                <mxCell id="27" value="+ updateHashes(ComponentNode)&#10;&#10;+ searchNode(dict[str, PyObjects]): ComponentNode&#10;+ searchNodes(dict[str, PyObjects]): list[ComponentNode]&#10;&#10;+ getNodeCost(ComponentNode): float&#10;+ getNodeQuantity(ComponentNode): int&#10;+ getNewNumber(str, int): str&#10;&#10;+ toString(list[str]): str&#10;&#10;+ __repr__(): str" style="text;strokeColor=none;fillColor=none;align=left;verticalAlign=top;spacingLeft=4;spacingRight=4;overflow=hidden;rotatable=0;points=[[0,0.5],[1,0.5]];portConstraint=eastwest;" vertex="1" parent="24">
                    <mxGeometry y="60" width="330" height="180" as="geometry"/>
                </mxCell>
            </root>
        </mxGraphModel>
    </diagram>
</mxfile>